<?xml version="1.0" encoding="UTF-8" standalone="no"?>
<svg
   height="16"
   width="14"
   viewBox="0 0 448 512"
   version="1.1"
   id="svg1"
   sodipodi:docname="square-rss-solid.svg"
   inkscape:version="1.3 (0e150ed6c4, 2023-07-21)"
   xmlns:inkscape="http://www.inkscape.org/namespaces/inkscape"
   xmlns:sodipodi="http://sodipodi.sourceforge.net/DTD/sodipodi-0.dtd"
   xmlns="http://www.w3.org/2000/svg"
   xmlns:svg="http://www.w3.org/2000/svg">
  <defs
     id="defs1" />
  <sodipodi:namedview
     id="namedview1"
     pagecolor="#505050"
     bordercolor="#eeeeee"
     borderopacity="1"
     inkscape:showpageshadow="0"
     inkscape:pageopacity="0"
     inkscape:pagecheckerboard="0"
     inkscape:deskcolor="#d1d1d1"
     inkscape:zoom="76.3125"
     inkscape:cx="7.004095"
     inkscape:cy="8"
     inkscape:window-width="2560"
     inkscape:window-height="1417"
     inkscape:window-x="1912"
     inkscape:window-y="-8"
     inkscape:window-maximized="1"
     inkscape:current-layer="svg1" />
  <!--!Font Awesome Free 6.5.1 by @fontawesome - https://fontawesome.com License - https://fontawesome.com/license/free Copyright 2024 Fonticons, Inc.-->
  <path
     opacity="1"
     fill="#1E3050"
     d="M64 32C28.7 32 0 60.7 0 96V416c0 35.3 28.7 64 64 64H384c35.3 0 64-28.7 64-64V96c0-35.3-28.7-64-64-64H64zM96 136c0-13.3 10.7-24 24-24c137 0 248 111 248 248c0 13.3-10.7 24-24 24s-24-10.7-24-24c0-110.5-89.5-200-200-200c-13.3 0-24-10.7-24-24zm0 96c0-13.3 10.7-24 24-24c83.9 0 152 68.1 152 152c0 13.3-10.7 24-24 24s-24-10.7-24-24c0-57.4-46.6-104-104-104c-13.3 0-24-10.7-24-24zm0 120a32 32 0 1 1 64 0 32 32 0 1 1 -64 0z"
     id="path1"
     style="fill:#d8dee9;fill-opacity:1.0" />
</svg>
